<?xml version="1.0" encoding="utf-8"?>
<!-- Generator: Adobe Illustrator 19.1.0, SVG Export Plug-In . SVG Version: 6.00 Build 0)  -->
<svg version="1.1" id="Layer_1" xmlns="http://www.w3.org/2000/svg" xmlns:xlink="http://www.w3.org/1999/xlink" x="0px" y="0px"
	 viewBox="-272 370.6 66.7 52.4" style="enable-background:new -272 370.6 66.7 52.4;" xml:space="preserve">
<style type="text/css">
	.st0{fill:#333333;stroke:#333333;stroke-width:2;stroke-miterlimit:10;}
</style>
<g>
	<g>
		<g>
			<path class="st0" d="M-225.4,379.6l-7-1.7c-0.5-0.1-1,0.2-1.1,0.7l-1.7,7c-0.1,0.5,0.2,1,0.7,1.1c0.1,0,0.2,0,0.2,0
				c0.5,0,0.9-0.3,0.9-0.8l1.1-4.8l0.6,1c1.7,2.9,2.3,6.4,1.4,9.6c-0.9,3.3-2.9,6.1-5.8,7.8c-0.5,0.3-0.9,0.6-1.4,0.8
				c-0.8-1.3-2-2.4-3.6-2.7c-0.4-0.1-0.8-0.1-1.1-0.1c-2.6,0-4.8,1.8-5.3,4.4c-0.3,1.4,0,2.9,0.8,4.1c0.8,1.2,2,2.1,3.4,2.4
				c0.4,0.1,0.8,0.1,1.1,0.1c2.6,0,4.8-1.8,5.3-4.4c0.1-0.7,0.2-1.3,0.1-1.9c0.7-0.3,1.2-0.6,1.8-1c3.3-2,5.7-5.2,6.6-9
				c1-3.8,0.4-7.7-1.7-11.1l-0.6-0.9l4.8,1.1c0.5,0.1,1-0.2,1.1-0.7C-224.6,380.3-224.9,379.8-225.4,379.6z M-238.9,403.9
				c-0.4,1.6-1.8,2.8-3.4,2.8c-0.3,0-0.5,0-0.8-0.1c-0.9-0.2-1.7-0.8-2.2-1.5c-0.5-0.8-0.7-1.7-0.5-2.7c0.4-1.6,1.8-2.8,3.4-2.8
				c0.3,0,0.5,0,0.8,0.1C-239.6,400.1-238.5,402-238.9,403.9z"/>
		</g>
	</g>
	<g>
		<path class="st0" d="M-219,401.6c0.4,0.4,0.4,0.9,0,1.3c-0.2,0.2-0.5,0.3-0.7,0.3c-0.3,0-0.5-0.1-0.7-0.3l-2.3-2.3l-2.3,2.3
			c-0.2,0.2-0.5,0.3-0.7,0.3c-0.3,0-0.5-0.1-0.7-0.3c-0.4-0.4-0.4-1,0-1.3l2.3-2.3l-2.3-2.3c-0.4-0.4-0.4-1,0-1.3
			c0.4-0.4,0.9-0.4,1.3,0l2.3,2.3l2.3-2.3c0.4-0.4,0.9-0.4,1.3,0c0.4,0.4,0.4,0.9,0,1.3l-2.3,2.3L-219,401.6z"/>
		<path class="st0" d="M-239.1,387.3c0.4,0.4,0.4,0.9,0,1.3c-0.2,0.2-0.5,0.3-0.7,0.3c-0.2,0-0.5-0.1-0.7-0.3l-2.3-2.3l-2.3,2.3
			c-0.2,0.2-0.5,0.3-0.7,0.3c-0.3,0-0.5-0.1-0.7-0.3c-0.4-0.4-0.4-1,0-1.3l2.3-2.3l-2.3-2.3c-0.4-0.4-0.4-1,0-1.3
			c0.4-0.4,0.9-0.4,1.3,0l2.3,2.3l2.3-2.3c0.4-0.4,0.9-0.4,1.3,0c0.4,0.4,0.4,0.9,0,1.3l-2.3,2.3L-239.1,387.3z"/>
		<path class="st0" d="M-250.2,396.8c0.4,0.4,0.4,0.9,0,1.3c-0.2,0.2-0.5,0.3-0.7,0.3c-0.3,0-0.5-0.1-0.7-0.3l-2.3-2.3l-2.3,2.3
			c-0.2,0.2-0.5,0.3-0.7,0.3c-0.3,0-0.5-0.1-0.7-0.3c-0.4-0.4-0.4-1,0-1.3l2.3-2.3l-2.3-2.3c-0.4-0.4-0.4-1,0-1.3
			c0.4-0.4,1-0.4,1.3,0l2.3,2.3l2.3-2.3c0.4-0.4,0.9-0.4,1.3,0c0.4,0.4,0.4,0.9,0,1.3l-2.3,2.3L-250.2,396.8z"/>
	</g>
	<g>
		<path class="st0" d="M-208,372h-61.4c-0.6,0-0.9,0.5-0.9,1v39.9c0,0.6,0.5,0.9,0.9,0.9h29.7v5.9h-12.8c-0.6,0-0.9,0.5-0.9,1
			s0.5,0.9,0.9,0.9h27.6c0.6,0,0.9-0.5,0.9-0.9c0-0.6-0.5-1-0.9-1h-12.8v-5.9h29.7c0.6,0,0.9-0.5,0.9-0.9V373
			C-207.1,372.4-207.4,372-208,372z M-209,411.9h-59.5v-38h59.5V411.9z"/>
	</g>
</g>
</svg>
