<?xml version="1.0" encoding="utf-8"?>
<!-- Generator: Adobe Illustrator 18.1.1, SVG Export Plug-In . SVG Version: 6.00 Build 0)  -->
<svg version="1.1" id="Layer_1" xmlns="http://www.w3.org/2000/svg" xmlns:xlink="http://www.w3.org/1999/xlink" x="0px" y="0px"
	 viewBox="0 0 174.5 200" enable-background="new 0 0 174.5 200" xml:space="preserve">
<path fill="#E95841" d="M71.9,60.8c25.9,25.9,37.7,56.2,26.3,67.6c-11.4,11.4-41.7-0.4-67.6-26.3C4.7,76.2-7,45.9,4.4,34.5
	C15.8,23.1,46,34.9,71.9,60.8"/>
<path fill="#B4C135" d="M143.9,102.1C118,128,87.7,139.8,76.3,128.4c-11.4-11.4,0.4-41.7,26.3-67.6c25.9-25.9,56.2-37.7,67.6-26.3
	C181.6,45.9,169.8,76.2,143.9,102.1"/>
<path fill="#9E6096" d="M143.9,128.1c25.9,25.9,37.7,56.2,26.3,67.6c-11.4,11.4-41.6-0.4-67.6-26.3c-25.9-25.9-37.7-56.2-26.3-67.6
	C87.7,90.4,118,102.1,143.9,128.1"/>
<path fill="#5C8BA2" d="M71.9,169.4C46,195.3,15.8,207,4.4,195.6C-7,184.2,4.7,154,30.7,128.1c25.9-25.9,56.2-37.7,67.6-26.3
	C109.6,113.2,97.9,143.4,71.9,169.4"/>
<path fill="#FFE720" d="M115.5,66.4c0,36.7-13.1,66.4-29.2,66.4c-16.1,0-29.2-29.7-29.2-66.4C57.1,29.7,70.2,0,86.3,0
	C102.4,0,115.5,29.7,115.5,66.4"/>
<path fill="#CF7032" d="M101.5,122.9c4.7-13.9-7.1-39.6-29.6-62.1c-4.5-4.5-9.1-8.5-13.8-12.1c-0.7,5.6-1.1,11.5-1.1,17.7
	c0,36.6,13,66.2,29.1,66.4c0.1,0,0.1,0,0.2,0C91.9,132.7,97.1,129.1,101.5,122.9"/>
<path fill="#E0D431" d="M76.3,128.4c2.7,2.7,6.4,4,10.8,4.3c15.8-1,28.4-30.2,28.4-66.3c0-5.6-0.4-11.1-0.9-16.3
	c-4,3.3-8.1,6.8-12,10.7C76.7,86.8,64.9,117,76.3,128.4"/>
<path fill="#5A686C" d="M99.8,99.3c0,0-2-3.6-3.7-6.7c-1.6-3.1-2.5-3.8-4.9-7.4c-2.3-3.6-4.8-6.6-4.8-6.6l-4.6,6.9
	c0,0-1.9,3-3.6,6.4c-1.7,3.4-3.2,6.8-3.2,6.8l-4,1.2c0,0-4.5,1.6-8.4,3.6c-3.8,2-4.7,2.2-9.1,5.1c-4.5,3-9,6.2-9,6.2
	s-0.5,0.2,5.8,4.2c6.3,4,7.9,5.3,12.9,7.5c5,2.2,9.2,3.6,11.8,5.2c0.4,0.2,0,0,0.2,0.2c1.1,0.8,0.5,1.2,1.8,3.8
	c1.6,3.1,2.1,4.2,3.7,6.9c1.6,2.7,5.9,9,5.9,9s1.4-1.5,4.4-6.6c3-5.1,4-6.1,5.3-8.9c1.3-2.8,2.2-4.9,2.2-4.9s7.4-2.9,10.7-4.6
	c3.3-1.7,3.8-1.6,8.7-4.8c4.9-3.2,11-6.7,11-6.7s-0.4-0.4-6.5-4.7c-6.8-4.7-7-4.4-11.5-6.8c-4.6-2.3-9.2-3.8-13.2-5"/>
<polyline fill="#FCB82F" points="83.8,58.9 88.4,94.3 71.9,78.4 75.9,97.1 65.7,87.9 70.5,101 51.8,91.7 67.5,106 53,105.4 
	66.5,110.5 36.5,116.3 65.8,117.3 57.4,125.5 67.1,124.1 56.2,152.5 70.9,130.2 71.1,141 76.9,133.8 86.8,161.6 86.6,136.2 
	94.9,147.1 93.5,134.8 110.6,142.2 101.5,129.3 128.5,131.6 105.7,121.7 120.4,119.9 108,116.1 135.2,106.4 105.6,107.4 113.2,98.5 
	103.1,99.8 123.3,81.8 98.4,95.5 100.7,87.3 92.9,92.3 "/>
<path fill="#FFFFFF" d="M107.1,114.9c0,11.2-9.1,20.4-20.4,20.4c-11.2,0-20.3-9.1-20.3-20.4c0-11.2,9.1-20.3,20.3-20.3
	C98,94.6,107.1,103.7,107.1,114.9"/>
<path fill="#FFFFFF" d="M102.2,115.1c0,9.8-7.1,17.7-15.9,17.7c-8.8,0-15.9-7.9-15.9-17.7c0-9.8,7.1-17.7,15.9-17.7
	C95.1,97.4,102.2,105.3,102.2,115.1"/>
</svg>
