<?xml version="1.0" encoding="utf-8"?>
<!-- Generator: Adobe Illustrator 18.1.1, SVG Export Plug-In . SVG Version: 6.00 Build 0)  -->
<svg version="1.1" id="Layer_1" xmlns="http://www.w3.org/2000/svg" xmlns:xlink="http://www.w3.org/1999/xlink" x="0px" y="0px"
	 viewBox="0 0 900 330" enable-background="new 0 0 900 330" xml:space="preserve">
<path fill="#C1D855" d="M223.5,143.1h23.2V232c0,9.4,3.5,11.7,9.6,11.7c1.8,0,3.5-0.2,3.5-0.2v18.6c0,0-3.5,0.5-7.4,0.5
	c-12.9,0-28.9-3-28.9-27.4V143.1z"/>
<path fill="#C1D855" d="M314.8,165.8c27,0,41.5,19.7,41.5,44.5c0,2.8-0.6,9-0.6,9h-64.7c1.5,16.4,14.1,24.8,28.1,24.8
	c15.1,0,27-10.3,27-10.3l9,16.7c0,0-14.3,13.4-37.7,13.4c-31.1,0-50.4-22.4-50.4-49.1C267.2,186,286.8,165.8,314.8,165.8
	 M332.8,203.3c-0.4-12.7-8.3-19.5-18.6-19.5c-11.9,0-20.2,7.4-22.4,19.5H332.8z"/>
<path fill="#C1D855" d="M423.2,202.9h3.1v-1.3c0-12.3-7.7-16.5-18-16.5c-13.4,0-25.7,9-25.7,9l-8.8-16.7c0,0,14.5-11.6,36.8-11.6
	c24.6,0,39,13.6,39,37.3v58.6H428V254c0-3.7,0.4-6.6,0.4-6.6H428c0.2,0-7.2,16.5-28.5,16.5c-16.7,0-31.8-10.5-31.8-29.2
	C367.7,204.9,407.9,202.9,423.2,202.9 M405.4,245.7c12.3,0,21.1-13.2,21.1-24.6v-2.2h-4c-11.9,0-31.2,1.7-31.2,14.7
	C391.2,239.8,395.8,245.7,405.4,245.7"/>
<path fill="#C1D855" d="M468.1,168h22.4v16.2c0,3.5-0.4,6.6-0.4,6.6h0.4c4.2-13.4,15.4-24.1,29.8-24.1c2.2,0,4.2,0.4,4.2,0.4v23
	c0,0-2.4-0.4-5.5-0.4c-9.9,0-21.1,5.7-25.5,19.7c-1.5,4.6-2,9.7-2,15.3v37.1h-23.3V168z"/>
<path fill="#C1D855" d="M540.3,168h22.4v10.8c0,3.5-0.4,6.4-0.4,6.4h0.4c4-7.9,14.3-19.5,33.3-19.5c20.8,0,32.5,10.8,32.5,35.7v60.3
	h-23.2v-55.5c0-11.4-2.9-19.1-14.9-19.1c-12.5,0-21.7,7.9-25.2,19.1c-1.3,3.9-1.7,8.1-1.7,12.5v43h-23.3V168z"/>
<path fill="#C1D855" d="M702.1,168h22.4v10.8c0,3.5-0.4,6.4-0.4,6.4h0.4c4-7.9,14.3-19.5,33.3-19.5c20.8,0,32.5,10.8,32.5,35.7v60.3
	h-23.2v-55.5c0-11.4-2.9-19.1-14.9-19.1c-12.5,0-21.7,7.9-25.2,19.1c-1.3,3.9-1.7,8.1-1.7,12.5v43h-23.3V168z"/>
<path fill="#C1D855" d="M850.2,280.4c14.3,0,26.5-6.1,26.5-22.8v-5.5c0-2.2,0.4-5,0.4-5h-0.4c-5.5,8.3-13.6,12.7-26.1,12.7
	c-26.8,0-42.1-21.7-42.1-47.4c0-25.7,14.5-46.7,41.5-46.7c20.4,0,27.8,11.9,27.8,11.9h0.6c0,0-0.2-1.1-0.2-2.6V168H900v88
	c0,32.2-25,44.3-49.4,44.3c-11.8,0-24.3-3.3-33.3-8.1l7-17.8C824.3,274.4,836,280.4,850.2,280.4 M877.2,212.6
	c0-21.3-10.5-27-23.2-27c-14.2,0-22.1,10.3-22.1,26.1c0,16.4,8.5,28.5,23.5,28.5C866.7,240.2,877.2,233.8,877.2,212.6"/>
<rect x="653" y="168" fill="#C1D855" width="23.5" height="93.5"/>
<path fill="#90CBEF" d="M163.4,34.1h22.4v15.7c0,3.5-0.4,6.4-0.4,6.4h0.4c4.6-9.2,15.8-19.5,30.5-19.5c14.3,0,23.5,6.6,27.4,19.3
	h0.4c5.1-10.1,17.3-19.3,32-19.3c19.5,0,30.7,11,30.7,35.6v60.3h-23.3V76.9c0-10.7-2-18.7-12.9-18.7c-11.9,0-19.9,9.6-22.6,21.3
	c-0.9,3.7-1.1,7.7-1.1,12.1v41.2h-23.3V76.9c0-10.1-1.7-18.7-12.7-18.7c-12.1,0-20,9.6-23,21.5c-0.9,3.5-1.1,7.7-1.1,11.9v41.2
	h-23.3V34.1z"/>
<path fill="#90CBEF" d="M374.8,73.9h3.1v-1.3c0-12.3-7.7-16.5-18-16.5c-13.4,0-25.7,9-25.7,9l-8.8-16.7c0,0,14.5-11.6,36.8-11.6
	c24.6,0,39,13.6,39,37.3v58.6h-21.5V125c0-3.7,0.4-6.6,0.4-6.6h-0.4c0.2,0-7.2,16.5-28.5,16.5c-16.7,0-31.8-10.5-31.8-29.2
	C319.3,75.9,359.6,73.9,374.8,73.9 M357,116.7c12.3,0,21.1-13.2,21.1-24.6v-2.2h-4c-11.9,0-31.2,1.7-31.2,14.7
	C342.9,110.9,347.5,116.7,357,116.7"/>
<polygon fill="#90CBEF" points="417.6,2.2 440.9,2.2 440.9,72.1 452.5,72.1 475.1,39 501,39 471.4,80.9 471.4,81.3 504.7,132.7 
	477.8,132.7 453,91.7 440.9,91.7 440.9,132.7 417.6,132.7 "/>
<path fill="#90CBEF" d="M550.7,36.8c27,0,41.5,19.7,41.5,44.5c0,2.8-0.6,9-0.6,9H527c1.5,16.4,14.2,24.8,28.1,24.8
	c15.1,0,27-10.3,27-10.3l9,16.7c0,0-14.3,13.4-37.7,13.4c-31.1,0-50.4-22.4-50.4-49.1C503.1,57,522.8,36.8,550.7,36.8 M568.7,74.3
	c-0.4-12.7-8.3-19.5-18.6-19.5c-12,0-20.2,7.4-22.4,19.5H568.7z"/>
<path fill="#F89E40" d="M0.5,34.1h22.4v15.7c0,3.4-0.4,6.4-0.4,6.4h0.4c4.2-13,15.4-23.4,29.8-23.4c2.2,0,4.2,0.4,4.2,0.4v22.3
	c0,0-2.4-0.4-5.5-0.4c-9.9,0-21.1,5.5-25.5,19.1c-1.5,4.5-2,9.5-2,14.8l-0.5,43.7H0L0.5,34.1z"/>
<path fill="#F89E40" d="M107.8,35c27,0,41.5,19.7,41.5,44.5c0,2.8-0.6,9-0.6,9H84.1c1.5,16.4,14.2,24.8,28.1,24.8
	c15.1,0,27-10.3,27-10.3l9,16.7c0,0-14.3,13.4-37.7,13.4c-31.1,0-50.4-22.4-50.4-49.1C60.2,55.2,79.9,35,107.8,35 M125.8,72.4
	c-0.4-12.7-8.3-19.5-18.6-19.5c-11.9,0-20.2,7.4-22.4,19.5H125.8z"/>
<path fill="#E95841" d="M654.1,48.6c17.9,17.9,26,38.7,18.1,46.6c-7.9,7.9-28.7-0.2-46.6-18.1c-17.9-17.9-26-38.7-18.1-46.6
	C615.4,22.6,636.3,30.7,654.1,48.6"/>
<path fill="#B4C135" d="M703.7,77c-17.9,17.9-38.7,26-46.6,18.1c-7.9-7.9,0.3-28.7,18.1-46.6c17.9-17.9,38.7-26,46.6-18.1
	C729.7,38.3,721.6,59.1,703.7,77"/>
<path fill="#9E6096" d="M703.7,94.9c17.9,17.9,26,38.7,18.1,46.6c-7.8,7.9-28.7-0.3-46.6-18.1c-17.9-17.9-26-38.7-18.1-46.6
	C665,68.9,685.8,77,703.7,94.9"/>
<path fill="#5C8BA2" d="M654.1,123.4c-17.9,17.9-38.7,26-46.6,18.1c-7.9-7.9,0.3-28.7,18.1-46.6c17.9-17.9,38.7-26,46.6-18.1
	C680.1,84.6,672,105.5,654.1,123.4"/>
<path fill="#FFE720" d="M684.2,52.4c0,25.3-9,45.8-20.1,45.8c-11.1,0-20.1-20.5-20.1-45.8c0-25.3,9-45.8,20.1-45.8
	C675.1,6.6,684.2,27.1,684.2,52.4"/>
<path fill="#CF7032" d="M674.5,91.4c3.2-9.6-4.9-27.3-20.4-42.8c-3.1-3.1-6.3-5.9-9.5-8.4c-0.5,3.9-0.7,8-0.7,12.2
	c0,25.2,9,45.6,20,45.7c0,0,0.1,0,0.1,0C667.9,98.1,671.5,95.6,674.5,91.4"/>
<path fill="#E0D431" d="M657.1,95.1c1.8,1.8,4.4,2.8,7.4,2.9c10.9-0.7,19.6-20.8,19.6-45.7c0-3.9-0.2-7.6-0.6-11.2
	c-2.8,2.2-5.6,4.7-8.3,7.4C657.4,66.4,649.3,87.3,657.1,95.1"/>
<path fill="#5A686C" d="M673.3,75.1c0,0-1.4-2.5-2.5-4.6c-1.1-2.1-1.7-2.6-3.3-5.1c-1.6-2.5-3.3-4.6-3.3-4.6l-3.2,4.7
	c0,0-1.3,2-2.5,4.4c-1.2,2.3-2.2,4.7-2.2,4.7l-2.7,0.8c0,0-3.1,1.1-5.8,2.5c-2.7,1.4-3.2,1.5-6.3,3.5c-3.1,2-6.2,4.3-6.2,4.3
	s-0.3,0.1,4,2.9c4.3,2.7,5.5,3.6,8.9,5.2c3.4,1.5,6.3,2.5,8.1,3.6c0.3,0.2,0,0,0.1,0.1c0.7,0.6,0.4,0.8,1.3,2.6
	c1.1,2.1,1.4,2.9,2.6,4.7c1.1,1.8,4.1,6.2,4.1,6.2s1-1,3-4.6c2-3.5,2.8-4.2,3.6-6.1c0.9-1.9,1.5-3.4,1.5-3.4s5.1-2,7.4-3.1
	c2.3-1.1,2.6-1.1,6-3.3c3.4-2.2,7.6-4.6,7.6-4.6s-0.3-0.3-4.5-3.2c-4.7-3.3-4.8-3.1-8-4.7c-3.2-1.6-6.4-2.6-9.1-3.5"/>
<polyline fill="#FCB82F" points="662.3,47.2 665.5,71.6 654.1,60.7 656.9,73.6 649.8,67.2 653.1,76.2 640.2,69.8 651,79.7 641,79.3 
	650.4,82.8 629.7,86.8 649.9,87.5 644.1,93.2 650.8,92.2 643.3,111.7 653.4,96.3 653.5,103.8 657.6,98.8 664.4,118 664.2,100.5 
	669.9,108 669,99.5 680.8,104.7 674.5,95.8 693.1,97.3 677.4,90.5 687.6,89.3 679,86.6 697.7,80 677.3,80.7 682.6,74.6 675.6,75.4 
	689.5,63 672.4,72.5 674,66.8 668.5,70.2 "/>
<path fill="#FFFFFF" d="M678.3,85.8c0,7.8-6.3,14-14,14c-7.7,0-14-6.3-14-14c0-7.7,6.3-14,14-14C672.1,71.8,678.3,78.1,678.3,85.8"
	/>
<path fill="#FFFFFF" d="M675,86c0,6.7-4.9,12.2-11,12.2c-6,0-11-5.4-11-12.2c0-6.7,4.9-12.2,11-12.2C670.1,73.8,675,79.2,675,86"/>
</svg>
